<svg id="Capa_1" enable-background="new 0 0 512 512" height="512" viewBox="0 0 512 512" width="512" xmlns="http://www.w3.org/2000/svg"><g><g><path d="m411.03 0h-230.39v512h230.39c35.16 0 63.76-28.32 63.76-63.48v-384.76c0-35.16-28.6-63.76-63.76-63.76zm-177.95 83.62h153.42v89.96h-153.42zm173.27 231.63c-3.87 15.53-13.08 25.97-23.95 36.83l-72.63 72.63-82.72-82.76c-19.75-23.34-20.98-58.07-2.47-82.54 19.74-26.09 56.75-33.72 85.21-17.48 25.53-14.57 58.49-10.15 79.25 10.61 16.27 16.29 22.87 40.39 17.31 62.71zm-369.14-5.85v30h37.15v-30zm0-136.52v30h37.15v-30zm37.15-172.88v104.62h37.15v30h-37.15v38.26h37.15v30h-37.15v38.12h37.15v30h-37.15v38.4h37.15v30h-37.15v38.26h37.15v30h-37.15v104.34h76.28v-512zm-35.62 104.62v30h35.62v-30zm-1.53 136.38v30h37.15v-30zm0 136.66v30h37.15v-30z"/></g><path d="m370.35 321.71-60.57 60.57-60.54-60.57c-14.5-17.85-7.92-45.69 12.98-55.23 18.78-8.58 33.71 1.6 47.57 13.26 8.06-6.77 15.54-13.99 26.31-15.89 9.71-1.72 20.04.71 27.94 6.63 15.93 11.93 18.85 35.79 6.31 51.23z"/><path d="m263.08 113.62h93.42v29.96h-93.42z"/></g></svg>